<?xml version="1.0" encoding="utf-8"?>
<!-- Generator: Adobe Illustrator 23.0.4, SVG Export Plug-In . SVG Version: 6.00 Build 0)  -->
<svg version="1.1" id="图层_1" xmlns="http://www.w3.org/2000/svg" xmlns:xlink="http://www.w3.org/1999/xlink" x="0px" y="0px"
	 viewBox="0 0 7262.4 3407.2" style="enable-background:new 0 0 7262.4 3407.2;" xml:space="preserve">
<style type="text/css">
	.st0{fill:#040000;}
</style>
<g>
	<path class="st0" d="M1960.1,1151.4h-202.3V2268h202.3c282.4,0,478.5-228.6,478.5-558.4C2438.6,1380.1,2242.5,1151.4,1960.1,1151.4
		z"/>
	<path class="st0" d="M5226.3,1145.7c-173.9,0-285.8,218.3-285.8,559.2c0,339,112.2,559.2,285.8,559.2
		c171.7,0,283.5-220.6,283.5-559.2C5509.8,1364,5397.6,1145.7,5226.3,1145.7z"/>
	<path class="st0" d="M3315.5,1144.6h-211.9v529.8h211.9c163.9,0,278-110.7,278-263.8C3593.5,1255.3,3479.8,1144.6,3315.5,1144.6z"
		/>
	<path class="st0" d="M-1.4,2.2v3407.2h7262.4V2.2H-1.4z M1338,2520.3H1040v-699.7H387v699.7H90.9V899.5H387v671.4h652.7V899.5H1338
		V2520.3h0.4H1338z M1976,2520.3h-514.3V899.5h514.7c448.9,0,767.9,337.1,767.9,810.4C2743.9,2183.2,2424.9,2520.3,1976,2520.3z
		 M3627.8,2520.3l-337.4-600.8h-186.8v600.8h-291.7V899.5h544.6c316.8,0,540.1,209.6,540.1,511.1c0,219.1-118.5,390.9-316.8,466.5
		l371.4,643.2H3627.8z M4573,2520.3h-298.3V1231.6l-298.4,219.1v-277.9l398.4-273.3H4573V2520.3z M5226.3,2514.5
		c-338.5,0-569.7-332.1-569.7-809.6s231.1-809.6,569.7-809.6c336.3,0,567.4,332.1,567.4,809.6S5562.6,2514.5,5226.3,2514.5z
		 M7215.4,1858.6h-530.3v614.8h-289.1v-614.8h-530.3V1557h530.3V946.1h289.1v610.5h530.3V1858.6z"/>
</g>
</svg>
